<svg xmlns="http://www.w3.org/2000/svg" viewBox="0 0 1200 900" role="img" aria-labelledby="title desc">
  <title id="title">Cover Topik 1 SiberCerdas</title>
  <desc id="desc">Ilustrasi anak sekolah menjelajah dunia digital dengan perangkat belajar, ikon keamanan, dan ruang bawah yang tenang untuk teks kartu.</desc>
  <defs>
    <linearGradient id="sky" x1="0" x2="1" y1="0" y2="1">
      <stop offset="0" stop-color="#fff4c7"/>
      <stop offset="0.48" stop-color="#bdf0dc"/>
      <stop offset="1" stop-color="#f7b7a9"/>
    </linearGradient>
    <linearGradient id="floor" x1="0" x2="0" y1="0" y2="1">
      <stop offset="0" stop-color="#d9f4ce" stop-opacity="0.25"/>
      <stop offset="1" stop-color="#5b8f6a"/>
    </linearGradient>
    <linearGradient id="tablet" x1="0" x2="1" y1="0" y2="1">
      <stop offset="0" stop-color="#6ce2c5"/>
      <stop offset="1" stop-color="#7b6cf2"/>
    </linearGradient>
    <radialGradient id="glow" cx="50%" cy="42%" r="55%">
      <stop offset="0" stop-color="#ffffff" stop-opacity="0.9"/>
      <stop offset="0.45" stop-color="#fff4a8" stop-opacity="0.42"/>
      <stop offset="1" stop-color="#ffffff" stop-opacity="0"/>
    </radialGradient>
    <filter id="softShadow" x="-20%" y="-20%" width="140%" height="150%">
      <feDropShadow dx="0" dy="18" stdDeviation="14" flood-color="#24443b" flood-opacity="0.22"/>
    </filter>
    <filter id="smallShadow" x="-20%" y="-20%" width="140%" height="140%">
      <feDropShadow dx="0" dy="8" stdDeviation="7" flood-color="#24443b" flood-opacity="0.2"/>
    </filter>
  </defs>

  <rect width="1200" height="900" fill="url(#sky)"/>
  <circle cx="584" cy="292" r="390" fill="url(#glow)"/>

  <path d="M0 560C142 505 246 565 360 526C499 480 586 425 736 484C871 537 976 515 1200 450V900H0Z" fill="#fef7dc" opacity="0.55"/>
  <path d="M0 620C167 586 246 648 386 602C551 548 667 543 816 600C969 658 1067 615 1200 580V900H0Z" fill="url(#floor)"/>

  <g opacity="0.22" stroke="#257b70" stroke-width="7" stroke-linecap="round" fill="none">
    <path d="M152 272C253 198 341 388 457 304S658 142 812 256S1000 335 1086 236"/>
    <path d="M150 404C308 351 395 498 530 426S733 323 878 421S1004 506 1122 428"/>
    <path d="M222 180C378 225 456 188 562 122S802 120 982 188"/>
  </g>

  <g filter="url(#smallShadow)" opacity="0.95">
    <circle cx="181" cy="268" r="32" fill="#ffcf5a"/>
    <path d="M169 267l9 10 18-22" fill="none" stroke="#2d6a4f" stroke-width="9" stroke-linecap="round" stroke-linejoin="round"/>
    <circle cx="1024" cy="264" r="35" fill="#9de0b5"/>
    <path d="M1009 266c22-28 50-11 31 14-9 12-20 16-31 21-11-5-22-9-31-21-19-25 9-42 31-14z" fill="#3f7f62"/>
    <circle cx="929" cy="145" r="25" fill="#ff8f75"/>
    <path d="M929 129v31M913 145h32" stroke="#fff9dc" stroke-width="8" stroke-linecap="round"/>
    <circle cx="306" cy="145" r="25" fill="#7b6cf2"/>
    <path d="M290 145h32M306 129v32" stroke="#fff9dc" stroke-width="8" stroke-linecap="round"/>
  </g>

  <g filter="url(#softShadow)">
    <path d="M408 272c0-38 31-69 69-69h246c38 0 69 31 69 69v172c0 38-31 69-69 69H477c-38 0-69-31-69-69z" fill="#203a43"/>
    <path d="M441 284c0-23 19-42 42-42h234c23 0 42 19 42 42v144c0 23-19 42-42 42H483c-23 0-42-19-42-42z" fill="url(#tablet)"/>
    <circle cx="600" cy="356" r="90" fill="#fff7d6" opacity="0.28"/>
    <path d="M509 361c49-61 126-61 182 0" stroke="#fff9dc" stroke-width="17" stroke-linecap="round" fill="none" opacity="0.9"/>
    <path d="M548 397c30-35 73-35 104 0" stroke="#fff9dc" stroke-width="15" stroke-linecap="round" fill="none" opacity="0.9"/>
    <circle cx="600" cy="435" r="18" fill="#fff9dc"/>
    <path d="M526 512h148l31 58H495z" fill="#263f46"/>
    <path d="M460 570h280c16 0 29 13 29 29H431c0-16 13-29 29-29z" fill="#31515a"/>
  </g>

  <g filter="url(#smallShadow)">
    <g transform="translate(235 380)">
      <path d="M92 151c16-63 96-63 112 0l17 70H75z" fill="#ff8f75"/>
      <circle cx="148" cy="68" r="48" fill="#7d4f35"/>
      <circle cx="148" cy="84" r="43" fill="#f5b48c"/>
      <path d="M102 73c18-55 87-57 101 1-28 0-52-10-70-28-5 16-14 25-31 27z" fill="#5c3626"/>
      <circle cx="132" cy="86" r="5" fill="#2f2f2f"/>
      <circle cx="166" cy="86" r="5" fill="#2f2f2f"/>
      <path d="M135 110c10 9 25 9 34 0" stroke="#b85b43" stroke-width="6" stroke-linecap="round" fill="none"/>
      <path d="M81 178c-50 17-69-33-26-62" stroke="#f5b48c" stroke-width="26" stroke-linecap="round" fill="none"/>
      <rect x="28" y="70" width="66" height="90" rx="17" transform="rotate(-15 61 115)" fill="#ffe76b"/>
      <circle cx="61" cy="118" r="12" fill="#44b38a"/>
    </g>
    <g transform="translate(800 388)">
      <path d="M76 138c13-58 86-65 113-10l39 79H56z" fill="#46b897"/>
      <circle cx="133" cy="67" r="52" fill="#39364b"/>
      <circle cx="133" cy="84" r="42" fill="#d99673"/>
      <path d="M87 76c22-44 71-56 102-12-25-2-49-14-65-32-8 19-20 34-37 44z" fill="#2b263b"/>
      <circle cx="118" cy="88" r="5" fill="#2f2f2f"/>
      <circle cx="152" cy="88" r="5" fill="#2f2f2f"/>
      <path d="M119 113c12 11 27 11 39 0" stroke="#9c4d3a" stroke-width="6" stroke-linecap="round" fill="none"/>
      <path d="M213 158c49-8 66-61 10-74" stroke="#d99673" stroke-width="26" stroke-linecap="round" fill="none"/>
      <rect x="200" y="52" width="72" height="92" rx="18" transform="rotate(16 236 98)" fill="#f7f0d4"/>
      <path d="M219 94l15 16 29-39" stroke="#46b897" stroke-width="10" stroke-linecap="round" stroke-linejoin="round" fill="none"/>
    </g>
  </g>

  <g filter="url(#smallShadow)">
    <path d="M263 650c88-26 211-40 337-40s249 14 337 40c25 8 24 42-2 49-94 26-220 40-335 40s-241-14-335-40c-26-7-27-41-2-49z" fill="#fff7dd" opacity="0.65"/>
    <path d="M191 665c126 40 275 60 409 60s283-20 409-60" stroke="#6ca677" stroke-width="8" stroke-linecap="round" opacity="0.22"/>
  </g>

  <rect y="585" width="1200" height="315" fill="#1b3e35" opacity="0.16"/>
  <rect y="660" width="1200" height="240" fill="#173d34" opacity="0.22"/>
</svg>
